<?xml version="1.0" encoding="UTF-8" standalone="no"?>
<!DOCTYPE svg PUBLIC "-//W3C//DTD SVG 1.1//EN" "http://www.w3.org/Graphics/SVG/1.1/DTD/svg11.dtd">
<svg width="100%" height="100%" viewBox="0 0 64 64" version="1.1" xmlns="http://www.w3.org/2000/svg" xmlns:xlink="http://www.w3.org/1999/xlink" xml:space="preserve" xmlns:serif="http://www.serif.com/" style="fill-rule:evenodd;clip-rule:evenodd;stroke-linejoin:round;stroke-miterlimit:2;">
    <g id="main-body" serif:id="main body" transform="matrix(1,0,0,1,7.38102,2.102943)">
        <path d="M46.622,19.947L48.771,19.947L48.771,32L48.677,32L48.677,41.063L48.307,41.063L50.496,45.966L45.035,48.403L42.044,41.7L43.472,41.063L42.044,41.063L42.044,32L26.908,32L26.908,39.905L29.336,45.999L23.304,48.403L20.379,41.063L20.088,41.063L20.088,29.179L19.22,29.897L7.892,16.205L8.055,16.069L1.215,16.069L1.215,11.678L11.399,11.678L11.399,13.303L13.291,11.738L19.972,19.813C20.066,16.594 22.664,14.014 25.855,14.014C29.091,14.014 31.717,16.666 31.741,19.947L35.41,19.947C35.435,16.821 37.935,14.294 41.016,14.294C44.097,14.294 46.597,16.821 46.622,19.947Z" style="fill:white;"/>
    </g>
</svg>
