<?xml version="1.0" encoding="UTF-8" standalone="no"?>
<!DOCTYPE svg PUBLIC "-//W3C//DTD SVG 1.1//EN" "http://www.w3.org/Graphics/SVG/1.1/DTD/svg11.dtd">
<svg width="100%" height="100%" viewBox="0 0 64 64" version="1.1" xmlns="http://www.w3.org/2000/svg" xmlns:xlink="http://www.w3.org/1999/xlink" xml:space="preserve" xmlns:serif="http://www.serif.com/" style="fill-rule:evenodd;clip-rule:evenodd;stroke-linejoin:round;stroke-miterlimit:2;">
    <path d="M31.58,8.596C34.725,8.596 37.279,11.149 37.279,14.295C37.279,17.44 34.725,19.994 31.58,19.994C28.434,19.994 25.88,17.44 25.88,14.295C25.88,11.149 28.434,8.596 31.58,8.596ZM31.604,13.17L32.933,15.556L35.643,15.557L37,13.129L31.58,13.126L31.581,13.129L26.207,13.126L27.561,15.556L30.271,15.557L31.604,13.17Z" style="fill:white;"/>
    <g transform="matrix(1,0,0,2.749999,0,-19.129915)">
        <path d="M38.961,11.025L38.961,11.212C38.961,11.263 38.845,11.305 38.704,11.305L24.549,11.305C24.407,11.305 24.292,11.263 24.292,11.212L24.292,11.025C24.292,10.973 24.407,10.931 24.549,10.931L38.704,10.931C38.845,10.931 38.961,10.973 38.961,11.025Z" style="fill:white;"/>
    </g>
    <path d="M37.279,10.931L25.88,10.931L28.73,6.26L34.429,6.26L37.279,10.931Z" style="fill:white;"/>
    <g transform="matrix(1.744318,0,0,1,-24.71453,-1.121169)">
        <path d="M24.296,27.981L24.292,26.741L24.372,26.87C24.75,23.589 26.412,21.115 28.403,21.115L36.625,21.115C38.609,21.115 40.267,23.572 40.651,26.836L40.71,26.741L40.711,27.489C40.727,27.751 40.736,28.017 40.736,28.286L40.736,46.458C40.736,46.645 40.732,46.829 40.724,47.012L40.736,65.121L34.784,55.538L34.783,53.629L30.317,53.629L30.323,55.473L24.406,65.121L24.354,47.706C24.313,47.301 24.292,46.884 24.292,46.458L24.292,28.286C24.292,28.184 24.293,28.082 24.296,27.981ZM32.3,24.829L28.872,23.027L28.87,30.221L32.299,28.425L35.726,30.227L35.729,23.033L32.3,24.829Z" style="fill:white;"/>
    </g>
</svg>
