<?xml version="1.0" encoding="UTF-8" standalone="no"?>
<!DOCTYPE svg PUBLIC "-//W3C//DTD SVG 1.1//EN" "http://www.w3.org/Graphics/SVG/1.1/DTD/svg11.dtd">
<svg width="100%" height="100%" viewBox="0 0 64 64" version="1.1" xmlns="http://www.w3.org/2000/svg" xmlns:xlink="http://www.w3.org/1999/xlink" xml:space="preserve" xmlns:serif="http://www.serif.com/" style="fill-rule:evenodd;clip-rule:evenodd;stroke-linejoin:round;stroke-miterlimit:2;">
    <g id="dj-groove" serif:id="dj groove" transform="matrix(1.275701,0,0,1.034722,-5.460893,-1.620438)">
        <path d="M31.013,46.669L26.545,46.669L26.545,57.323L20.833,57.323L20.833,45.495L21.872,45.495C20.621,44.374 19.807,42.556 19.807,40.506L19.807,25.923C19.807,22.522 22.047,19.761 24.806,19.761L25.134,19.761C24.632,19.033 24.254,18.176 24.038,17.238C23.788,17.408 23.508,17.503 23.213,17.503C22.142,17.503 21.272,16.249 21.272,14.704C21.272,13.177 22.122,11.933 23.176,11.905L23.213,11.905C23.656,11.905 24.065,12.12 24.392,12.481C25.299,10.217 27.219,8.654 29.438,8.654C31.771,8.654 33.772,10.381 34.615,12.833C34.99,12.263 35.534,11.905 36.14,11.905C37.271,11.905 38.19,13.159 38.19,14.704C38.19,16.249 37.271,17.503 36.14,17.503C35.674,17.503 35.245,17.291 34.901,16.935C34.702,17.992 34.298,18.955 33.742,19.761L34.803,19.761C37.562,19.761 39.801,22.522 39.801,25.923L39.801,40.506C39.801,43.17 38.427,45.442 36.506,46.301L36.506,57.323L31.013,57.323L31.013,46.669ZM23.176,11.905L22.444,11.905L22.444,6.668L36.506,6.668L36.506,11.905L35.7,11.905L35.7,7.751L23.176,7.751L23.176,11.905ZM24.889,13.011C24.679,13.347 24.568,13.729 24.568,14.117C24.568,15.338 25.643,16.329 26.966,16.329C28.29,16.329 29.365,15.338 29.365,14.117C29.365,13.729 29.254,13.347 29.044,13.011L24.889,13.011ZM31.424,13.497C31.067,13.808 30.866,14.23 30.866,14.67C30.866,15.586 31.72,16.329 32.771,16.329C33.822,16.329 34.675,15.586 34.675,14.67C34.675,14.23 34.474,13.808 34.117,13.497L31.424,13.497Z" style="fill:white;"/>
        <clipPath id="_clip1">
            <path d="M31.013,46.669L26.545,46.669L26.545,57.323L20.833,57.323L20.833,45.495L21.872,45.495C20.621,44.374 19.807,42.556 19.807,40.506L19.807,25.923C19.807,22.522 22.047,19.761 24.806,19.761L25.134,19.761C24.632,19.033 24.254,18.176 24.038,17.238C23.788,17.408 23.508,17.503 23.213,17.503C22.142,17.503 21.272,16.249 21.272,14.704C21.272,13.177 22.122,11.933 23.176,11.905L23.213,11.905C23.656,11.905 24.065,12.12 24.392,12.481C25.299,10.217 27.219,8.654 29.438,8.654C31.771,8.654 33.772,10.381 34.615,12.833C34.99,12.263 35.534,11.905 36.14,11.905C37.271,11.905 38.19,13.159 38.19,14.704C38.19,16.249 37.271,17.503 36.14,17.503C35.674,17.503 35.245,17.291 34.901,16.935C34.702,17.992 34.298,18.955 33.742,19.761L34.803,19.761C37.562,19.761 39.801,22.522 39.801,25.923L39.801,40.506C39.801,43.17 38.427,45.442 36.506,46.301L36.506,57.323L31.013,57.323L31.013,46.669ZM23.176,11.905L22.444,11.905L22.444,6.668L36.506,6.668L36.506,11.905L35.7,11.905L35.7,7.751L23.176,7.751L23.176,11.905ZM24.889,13.011C24.679,13.347 24.568,13.729 24.568,14.117C24.568,15.338 25.643,16.329 26.966,16.329C28.29,16.329 29.365,15.338 29.365,14.117C29.365,13.729 29.254,13.347 29.044,13.011L24.889,13.011ZM31.424,13.497C31.067,13.808 30.866,14.23 30.866,14.67C30.866,15.586 31.72,16.329 32.771,16.329C33.822,16.329 34.675,15.586 34.675,14.67C34.675,14.23 34.474,13.808 34.117,13.497L31.424,13.497Z"/>
        </clipPath>
        <g clip-path="url(#_clip1)">
            <g transform="matrix(0.783883,0,0,4.67114,4.2807,-17.990411)">
                <rect x="40.082" y="5.279" width="1.028" height="1.121" style="fill:white;"/>
            </g>
        </g>
    </g>
</svg>
