<?xml version="1.0" encoding="UTF-8" standalone="no"?>
<!DOCTYPE svg PUBLIC "-//W3C//DTD SVG 1.1//EN" "http://www.w3.org/Graphics/SVG/1.1/DTD/svg11.dtd">
<svg width="100%" height="100%" viewBox="0 0 64 64" version="1.1" xmlns="http://www.w3.org/2000/svg" xmlns:xlink="http://www.w3.org/1999/xlink" xml:space="preserve" xmlns:serif="http://www.serif.com/" style="fill-rule:evenodd;clip-rule:evenodd;stroke-linejoin:round;stroke-miterlimit:2;">
    <g transform="matrix(1.354167,0,0,1.34375,1.98929,-1.713868)">
        <path d="M31.58,16.537C29.104,16.537 27.095,14.528 27.095,12.053C27.095,9.577 29.104,7.568 31.58,7.568C34.055,7.568 36.064,9.577 36.064,12.053C36.064,14.528 34.055,16.537 31.58,16.537ZM28.147,16.537L36.737,16.537C39.107,16.537 41.032,18.477 41.032,20.865L41.032,38.283C41.032,40.671 39.107,42.611 36.737,42.611L28.147,42.611C25.777,42.611 23.852,40.671 23.852,38.283L23.852,20.865C23.852,18.477 25.777,16.537 28.147,16.537Z" style="fill:white;"/>
    </g>
    <g transform="matrix(1,0,0,1,-0.560584,-4.905109)">
        <path d="M26.908,46.272L26.908,51.177C26.908,52.53 25.809,53.629 24.455,53.629L11.142,53.629C9.788,53.629 8.689,52.53 8.689,51.177L8.689,46.272C8.689,44.918 9.788,43.819 11.142,43.819L24.455,43.819C25.809,43.819 26.908,44.918 26.908,46.272Z" style="fill:white;"/>
    </g>
    <ellipse cx="7.381" cy="40.269" rx="3.364" ry="3.55" style="fill:white;"/>
    <g transform="matrix(0.762198,0.647344,-0.647344,0.762198,28.167367,4.954105)">
        <path d="M7.381,41.109L7.381,44.333C7.381,44.797 7.004,45.174 6.54,45.174L4.858,45.174C4.394,45.174 4.018,44.797 4.018,44.333L4.018,41.109C4.018,40.645 4.394,40.269 4.858,40.269L6.54,40.269C7.004,40.269 7.381,40.645 7.381,41.109Z" style="fill:white;"/>
    </g>
    <path d="M13.267,49.121L13.267,55.801C13.267,56.15 12.985,56.432 12.636,56.432L11.375,56.432C11.027,56.432 10.745,56.15 10.745,55.801L10.745,49.121C10.745,48.773 11.027,48.491 11.375,48.491L12.636,48.491C12.985,48.491 13.267,48.773 13.267,49.121Z" style="fill:white;"/>
    <path d="M21.676,49.028L21.676,55.895C21.676,56.191 21.435,56.432 21.139,56.432L20.064,56.432C19.768,56.432 19.527,56.191 19.527,55.895L19.527,49.028C19.527,48.731 19.768,48.491 20.064,48.491L21.139,48.491C21.435,48.491 21.676,48.731 21.676,49.028Z" style="fill:white;"/>
    <g transform="matrix(0.580093,0.81455,-0.81455,0.580093,41.095496,-1.008733)">
        <path d="M27.352,30.645C26.582,31.877 25.957,33.819 25.957,35.925C25.957,38.032 26.582,39.973 27.352,41.205C24.786,41.205 22.704,38.84 22.704,35.925C22.704,33.011 24.786,30.645 27.352,30.645Z" style="fill:white;"/>
    </g>
</svg>
