<?xml version="1.0" encoding="UTF-8" standalone="no"?>
<!DOCTYPE svg PUBLIC "-//W3C//DTD SVG 1.1//EN" "http://www.w3.org/Graphics/SVG/1.1/DTD/svg11.dtd">
<svg width="100%" height="100%" viewBox="0 0 64 64" version="1.1" xmlns="http://www.w3.org/2000/svg" xmlns:xlink="http://www.w3.org/1999/xlink" xml:space="preserve" xmlns:serif="http://www.serif.com/" style="fill-rule:evenodd;clip-rule:evenodd;stroke-linejoin:round;stroke-miterlimit:2;">
    <path d="M53.844,54.386L53.844,64L10.13,64L10.13,54.386L53.844,54.386ZM5.065,25.693L0,25.693L0,16.444L16,0L48,0L64,16.444L64,25.693L58.926,25.693L58.926,30.445L64.007,35.289L63.973,48.705L63.997,48.705L63.992,54.386L63.959,54.386L63.959,54.43L53.844,63.974L53.869,54.378L45.968,54.372L32.332,48.679L53.883,48.697L53.883,48.679L32.332,48.679L20.032,48.679L10.13,48.679L10.13,42.869L10.106,42.869L10.098,48.687L32.332,48.705L20.032,54.376L10.091,54.368L10.077,63.974L0,54.39L0.008,48.684L0,48.679L0.008,48.679L0.027,35.25L5.065,30.484L5.065,25.693ZM53.844,25.693L39.889,25.693L53.844,33.453L53.844,25.693ZM24.765,25.693L10.13,25.693L10.13,33.756L10.264,33.756L24.765,25.693ZM53.897,43.127L53.897,43.124L53.891,43.124L53.891,43.127L53.897,43.127ZM53.92,34.012L53.92,34.009L38.89,34.009L42.016,40.904L42.016,44.834L21.984,44.834L21.984,40.904L25.11,34.009L23.317,34.009L20.032,39.616L20.032,46.762L44.099,46.762L44.099,40.386L40.36,34.016L53.92,34.012Z" style="fill:white;"/>
</svg>
