<?xml version="1.0" encoding="UTF-8" standalone="no"?>
<!DOCTYPE svg PUBLIC "-//W3C//DTD SVG 1.1//EN" "http://www.w3.org/Graphics/SVG/1.1/DTD/svg11.dtd">
<svg width="100%" height="100%" viewBox="0 0 64 64" version="1.1" xmlns="http://www.w3.org/2000/svg" xmlns:xlink="http://www.w3.org/1999/xlink" xml:space="preserve" xmlns:serif="http://www.serif.com/" style="fill-rule:evenodd;clip-rule:evenodd;stroke-linejoin:round;stroke-miterlimit:2;">
    <ellipse cx="29.898" cy="14.248" rx="7.101" ry="7.054" style="fill:white;"/>
    <path d="M45.874,29.127L45.874,51.13C45.874,55.449 42.368,58.955 38.05,58.955L22.4,58.955C18.081,58.955 14.575,55.449 14.575,51.13L14.575,29.127C14.575,24.808 18.081,21.302 22.4,21.302L38.05,21.302C42.368,21.302 45.874,24.808 45.874,29.127Z" style="fill:white;"/>
    <g transform="matrix(1,0,0,0.666667,0,2.398052)">
        <path d="M43.445,7.685L43.445,8.666C43.445,8.936 43.299,9.156 43.118,9.156L16.397,9.156C16.217,9.156 16.07,8.936 16.07,8.666L16.07,7.685C16.07,7.414 16.217,7.194 16.397,7.194L43.118,7.194C43.299,7.194 43.445,7.414 43.445,7.685Z" style="fill:white;"/>
    </g>
</svg>
