<?xml version="1.0" encoding="UTF-8" standalone="no"?>
<!DOCTYPE svg PUBLIC "-//W3C//DTD SVG 1.1//EN" "http://www.w3.org/Graphics/SVG/1.1/DTD/svg11.dtd">
<svg width="100%" height="100%" viewBox="0 0 64 64" version="1.1" xmlns="http://www.w3.org/2000/svg" xmlns:xlink="http://www.w3.org/1999/xlink" xml:space="preserve" xmlns:serif="http://www.serif.com/" style="fill-rule:evenodd;clip-rule:evenodd;stroke-linejoin:round;stroke-miterlimit:2;">
    <g id="scotsman" transform="matrix(1,0,0,1,0.093436,8.502188)">
        <path d="M39.01,10.698L21.533,10.698C20.647,9.931 20.181,9.061 20.181,8.175C20.181,5.391 24.702,3.13 30.272,3.13C35.841,3.13 40.362,5.391 40.362,8.175C40.362,9.061 39.896,9.931 39.01,10.698ZM21.816,40.128L21.816,26.768L10.277,26.768L10.277,36.952L4.485,36.952L4.485,21.069L27.107,21.069C24.017,19.981 21.844,17.358 21.863,14.311C21.871,13.04 22.267,11.794 23.012,10.698L37.576,10.789C38.307,11.895 38.688,13.146 38.68,14.417C38.661,17.426 36.509,19.995 33.465,21.069L38.914,21.069L38.914,40.689L39.241,40.689L39.241,47.603L33.168,47.603L33.168,40.689L28.496,40.689L28.496,47.603L21.769,47.603L21.769,40.128L21.816,40.128ZM30.272,3.13C28.725,3.13 27.469,2.167 27.469,0.981C27.469,-0.205 28.725,-1.168 30.272,-1.168C31.819,-1.168 33.074,-0.205 33.074,0.981C33.074,2.167 31.819,3.13 30.272,3.13ZM58.114,26.721L38.961,26.721L38.961,21.022L49.331,21.022L49.331,11.305L58.114,11.305L58.114,26.721Z" style="fill:white;"/>
    </g>
</svg>
